<svg xmlns="http://www.w3.org/2000/svg" width="504.721" height="73.073" viewBox="0 0 504.721 73.073">
  <g id="logo" transform="translate(-26.294 -12.4)">
    <path id="Caminho_1" data-name="Caminho 1" d="M228.7,69.028c-1.39-.927-3.244-.618-4.789-1.081-12.2-3.4-20.547-10.969-24.718-23.019-.463-1.236-.463-1.854,1.236-1.854,3.4,0,6.952-.154,10.351-.463A1.944,1.944,0,0,1,213.1,44c6.334,12.05,21.783,15.294,31.979,6.8a18.516,18.516,0,0,0,1.854-1.7l6.488,10.66c.772,1.236-.155,1.545-.772,2.008A34.92,34.92,0,0,1,235.5,68.719c-.463,0-.927-.154-1.081.309Z" transform="translate(94.065 16.445)" fill="#fff"/>
    <path id="Caminho_2" data-name="Caminho 2" d="M317.933,12.4c.309.618,1.081.463,1.7.618a8.656,8.656,0,0,1,6.025,9.269,8.381,8.381,0,0,1-8.651,7.261,8.6,8.6,0,0,1-8.188-7.415,8.6,8.6,0,0,1,6.489-9.269c.463-.154,1.081.154,1.236-.463Z" transform="translate(153.914)" fill="#fff"/>
    <path id="Caminho_3" data-name="Caminho 3" d="M59.518,15.9H74.5c1.39,0,1.854.154,1.854,1.7-.154,3.244-.154,6.488,0,9.887,0,1.39-.463,1.7-1.7,1.7H46.541a6.253,6.253,0,0,0-6.18,3.708,6.1,6.1,0,0,0,.618,6.8c1.545,2.163,3.708,2.781,6.18,2.781H60.445c9.115.154,17.766,8.033,18.539,16.994.154,1.236-.154,1.545-1.39,1.7-3.553,0-7.106.309-10.505.463-.772,0-1.236-.154-1.39-.927-1.236-3.4-3.244-4.944-6.952-4.944-4.789,0-9.578.154-14.522-.154-10.2-.618-18.23-9.887-17.921-20.238s8.806-19,19-19.157C49.94,15.9,54.729,15.9,59.518,15.9Z" transform="translate(0 1.907)" fill="#fff"/>
    <path id="Caminho_4" data-name="Caminho 4" d="M307.637,38.3h12.513c1.39,0,1.545.618,1.545,1.7V67.807c0,.618.618,1.7-.618,1.854-1.081.154-2.317.463-3.09-.618-1.081-1.545-2.317-3.244-3.4-4.789-.618-1.081-1.081-.927-2.008-.154-3.862,3.244-8.033,5.716-13.131,6.489-12.05,1.7-25.336-4.944-27.808-20.547a33.68,33.68,0,0,1-.309-7.879c0-1.081.463-1.545,1.545-1.545,3.553-.154,6.952-.309,10.505-.463.927,0,1.236.154,1.081,1.236a17.647,17.647,0,0,0,.154,8.033,11.69,11.69,0,0,0,11.123,8.806,12.892,12.892,0,0,0,12.2-8.5C309.182,46.333,309.182,44.634,307.637,38.3Z" transform="translate(133.466 14.112)" fill="#fff"/>
    <path id="Caminho_5" data-name="Caminho 5" d="M232.253,15.3a33.2,33.2,0,0,1,21.165,7.261c.927.772,1.081,1.236.463,2.317-1.854,2.935-3.708,6.025-5.562,8.96-.618,1.081-.927,1.236-1.854.309-7.879-6.8-18.539-7.415-26.572-1.39a20.36,20.36,0,0,0-8.5,16.685c0,1.545-.463,1.854-1.854,1.854-3.4,0-6.643.154-10.042.463-1.081,0-1.39-.154-1.39-1.236-.772-16.685,12.514-32.6,29.2-34.76A28.062,28.062,0,0,1,232.253,15.3Z" transform="translate(93.602 1.58)" fill="#fff"/>
    <path id="Caminho_6" data-name="Caminho 6" d="M238.6,31.776V15.709c0-1.39.463-1.854,1.854-1.7q4.635.232,9.269,0c1.39,0,1.7.463,1.7,1.7V34.248c0,.772,0,1.7,1.081.772,6.643-4.48,18.693-2.626,25.336,5.562a20.715,20.715,0,0,1,3.553,6.18c.309.772.309,1.081-.618,1.081l-12.05.463a2.7,2.7,0,0,1-1.854-.618c-4.017-3.244-8.96-3.09-12.668.618a3.052,3.052,0,0,1-1.7.927c-4.171.154-8.188.309-12.359.618-1.39.154-1.236-.618-1.236-1.545C238.6,42.745,238.6,37.338,238.6,31.776Z" transform="translate(115.681 0.862)" fill="#fff"/>
    <path id="Caminho_7" data-name="Caminho 7" d="M143.487,50.243l5.562-7.415c.772-.927,1.39-1.854,2.163-2.781,1.236-1.39.309-1.545-.772-1.7a12.136,12.136,0,0,0-13.749,10.66c-.154,1.39-.463,1.854-2.008,1.854-3.09,0-6.334.154-9.424.463-1.39.154-1.7-.309-1.545-1.7.309-12.977,10.2-23.328,23.637-24.1,8.651-.618,15.912,2.781,21.474,9.578a1.493,1.493,0,0,1,0,2.163c-3.244,3.862-6.488,7.724-9.578,11.587a2.733,2.733,0,0,1-1.7,1.081c-4.48.154-8.806.463-13.286.618C143.951,50.552,143.8,50.4,143.487,50.243Z" transform="translate(53.062 7.113)" fill="#fff"/>
    <path id="Caminho_8" data-name="Caminho 8" d="M128.76,46.512c-2.163-4.789-5.407-7.724-10.505-8.188-6.643-.463-12.05,4.326-12.977,11.278-.463,3.4-.463,3.4-3.862,3.553-2.626.154-5.253.154-7.724.309-1.081,0-1.39-.154-1.39-1.236-.154-12.823,9.578-26.572,24.873-26.726,8.5-.154,15.294,3.553,20.238,10.505a1.548,1.548,0,0,1-.154,2.317C134.167,40.95,131.541,43.731,128.76,46.512Z" transform="translate(35.964 7.136)" fill="#fff"/>
    <path id="Caminho_9" data-name="Caminho 9" d="M152.485,45.5c-2.472,2.935-4.48,5.562-6.643,8.033,4.635,1.7,9.424-.618,14.058-6.488,2.935,2.781,5.716,5.716,8.651,8.5.927.927,0,1.39-.463,1.854q-8.806,10.428-22.246,9.269A24.76,24.76,0,0,1,124.369,48.59c-.463-1.545-.154-2.008,1.545-2.008,3.244,0,6.488-.463,9.733-.309,2.626.154,5.253-.463,7.879-.463C146.306,45.963,149.087,45.654,152.485,45.5Z" transform="translate(53.333 18.036)" fill="#fff"/>
    <path id="Caminho_10" data-name="Caminho 10" d="M65.1,37.8V15.709c0-1.39.309-1.854,1.7-1.7,3.09.154,6.334,0,9.424,0,1.236,0,1.7.309,1.7,1.545V59.738c0,1.236-.463,1.545-1.545,1.7-3.09,0-6.334.154-9.424.463-1.545.154-1.854-.463-1.854-1.854Z" transform="translate(21.144 0.862)" fill="#fff"/>
    <path id="Caminho_11" data-name="Caminho 11" d="M76.967,49.2c-2.008,8.188-9.887,14.522-18.075,14.522-9.578.154-19.157,0-28.735,0-1.39,0-1.7-.463-1.545-1.7a80.789,80.789,0,0,0,0-8.651c-.154-1.7.463-2.163,2.008-2.163,8.342-.309,16.685-.463,25.027-.772,6.643-.309,13.286-1.081,20.083-1.236Z" transform="translate(1.244 20.052)" fill="#fff"/>
    <path id="Caminho_12" data-name="Caminho 12" d="M99.982,47.9h1.081a8.538,8.538,0,0,1,8.033,2.626c4.944,4.944,13.749,3.553,17.921-2.317,1.39-1.854,1.39-1.854,3.09-.309,2.163,2.163,4.326,4.326,6.643,6.489.772.618.772,1.236.154,2.008-6.025,7.415-13.9,10.66-23.328,9.424-9.887-1.39-16.685-6.952-20.392-16.221-.463-1.081-.309-1.39.927-1.39,1.854-.154,3.862-.309,5.871-.309Z" transform="translate(36.316 18.729)" fill="#fff"/>
    <path id="Caminho_13" data-name="Caminho 13" d="M308.241,39.473c-1.236,0-2.317.154-3.553.154a11.616,11.616,0,0,1-5.562-.772,11.577,11.577,0,0,0-9.578.772,6.39,6.39,0,0,1-2.935.772c-4.171.154-8.188.309-12.359.463-1.854,0-1.854,0-1.081-1.7,6.025-12.514,22.864-18.693,36-9.115a6.541,6.541,0,0,0,1.081.772c.927.618,1.7,2.163,2.781,1.854.927-.309,1.545-1.7,2.317-2.472,1.236-1.236,1.854-3.244,4.326-2.935.927.154,1.236.154,1.236,1.236v9.115c0,1.081-.309,1.236-1.236,1.236-3.862.309-7.57.618-11.432.618Z" transform="translate(134.253 7.069)" fill="#fff"/>
    <path id="Caminho_14" data-name="Caminho 14" d="M157.354,37.51V28.858c0-.618-.618-1.854.618-2.008,1.081-.154,2.317-.463,3.09.927.772,1.236,1.854,2.472,2.626,3.862.463.772.927.927,1.7.309A22.769,22.769,0,0,1,180.682,27c2.781.154,5.716,0,8.5,0,.927,0,1.236.309,1.236,1.236V38.282c0,1.236-.463,1.39-1.545,1.39h-9.424a9.025,9.025,0,0,0-9.269,7.106c-.154.772-.463,1.236-1.39,1.236l-10.2.463c-1.236.154-1.39-.463-1.39-1.545C157.354,43.844,157.354,40.6,157.354,37.51Z" transform="translate(71.328 7.796)" fill="#fff"/>
    <path id="Caminho_15" data-name="Caminho 15" d="M343.4,36.2h12.514a1.531,1.531,0,0,1,1.7,1.236,30.437,30.437,0,0,1,.618,5.253V68.951c0,1.545-.463,2.008-2.008,2.008a83.718,83.718,0,0,0-8.806,0c-1.7.154-2.008-.463-2.008-2.163.154-7.879,0-15.6,0-23.482C345.408,40.68,345.408,40.68,343.4,36.2Z" transform="translate(172.785 12.968)" fill="#fff"/>
    <path id="Caminho_16" data-name="Caminho 16" d="M338.822,36.9c-2.008,3.09-1.7,6.488-1.7,9.733V68.879c0,1.39-.463,1.854-1.854,1.7q-4.635-.232-9.269,0c-1.236,0-1.7-.309-1.7-1.7V39.063c0-1.081.154-1.545,1.39-1.545C330.016,37.363,334.187,37.209,338.822,36.9Z" transform="translate(162.377 13.35)" fill="#fff"/>
    <path id="Caminho_17" data-name="Caminho 17" d="M322.822,53.976V68.652c0,1.081-.309,1.545-1.39,1.545h-9.887c-1.236,0-1.545-.309-1.545-1.545V39.763c0-1.081.154-1.545,1.39-1.7,3.4-.154,6.8-.154,10.2-.463,1.081,0,1.236.463,1.236,1.39Z" transform="translate(154.586 13.731)" fill="#fff"/>
    <path id="Caminho_18" data-name="Caminho 18" d="M271.722,54.323V67.3c0,1.081-.309,1.545-1.39,1.545h-9.887c-1.081,0-1.545-.309-1.545-1.39V41.964c0-1.081.309-1.39,1.39-1.39,3.4-.154,6.643-.154,10.042-.463,1.236-.154,1.39.309,1.39,1.39Z" transform="translate(126.742 15.083)" fill="#fff"/>
    <path id="Caminho_19" data-name="Caminho 19" d="M79.5,40.195V28.145c0-1.081.309-1.545,1.39-1.545h9.887c1.236,0,1.7.309,1.7,1.545V51.627c0,.927,0,1.545-1.236,1.545q-5.1,0-10.2.463c-1.081,0-1.545-.309-1.39-1.39C79.5,48.228,79.5,44.212,79.5,40.195Z" transform="translate(28.991 7.737)" fill="#fff"/>
    <path id="Caminho_20" data-name="Caminho 20" d="M251.214,54.549V66.908c0,1.081-.309,1.545-1.39,1.545H240.09c-1.081,0-1.39-.309-1.39-1.39V42.808c0-1.081.309-1.39,1.236-1.545,3.4-.154,6.952-.309,10.351-.463,1.236,0,.927.772.927,1.545C251.214,46.362,251.214,50.533,251.214,54.549Z" transform="translate(115.736 15.475)" fill="#fff"/>
    <path id="Caminho_21" data-name="Caminho 21" d="M364.5,35.376c-5.871.309-11.587.463-17.148.772-6.952.309-13.9.618-20.856,1.081-1.545.154-2.317-.154-2.163-1.854.155-2.008,0-4.017,0-6.18,0-.772-.463-1.854.618-2.008s2.317-.463,3.244.618c.772.927,1.7,1.854,2.472,2.781.618.927,1.236,1.081,2.163.309a21.86,21.86,0,0,1,30.743,3.4C363.884,34.449,364.038,34.758,364.5,35.376Z" transform="translate(162.343 7.458)" fill="#fff"/>
    <path id="Caminho_22" data-name="Caminho 22" d="M169.822,55.479v9.269c0,1.236-.309,1.7-1.545,1.7-3.09-.154-6.334,0-9.424,0-1.081,0-1.7-.309-1.545-1.545V46.364c0-1.081.309-1.39,1.39-1.39l9.733-.463c1.236-.154,1.545.309,1.545,1.545C169.822,49.145,169.822,52.235,169.822,55.479Z" transform="translate(71.374 17.481)" fill="#fff"/>
    <path id="Caminho_23" data-name="Caminho 23" d="M86.751,12.6a8.248,8.248,0,0,1,8.342,8.5,8.343,8.343,0,0,1-8.5,8.342,8.472,8.472,0,0,1-8.5-8.5A8.575,8.575,0,0,1,86.751,12.6Z" transform="translate(28.228 0.109)" fill="#fff"/>
    <path id="Caminho_24" data-name="Caminho 24" d="M92.323,56.142v6.8c0,1.081-.154,1.545-1.39,1.545h-10.2c-.927,0-1.236-.309-1.236-1.236V49.5c0-.927.309-1.236,1.081-1.236,3.4-.154,6.952-.154,10.351-.463,1.081,0,1.39.309,1.39,1.39Q92.323,52.9,92.323,56.142Z" transform="translate(28.991 19.289)" fill="#fff"/>
    <path id="Caminho_25" data-name="Caminho 25" d="M77.923,56.27v6.489c0,1.081-.309,1.39-1.39,1.39h-10.2c-.927,0-1.236-.309-1.236-1.236V50.4c0-.772.154-1.236,1.081-1.236l10.66-.463c1.081,0,1.081.618,1.081,1.39Z" transform="translate(21.144 19.779)" fill="#fff"/>
    <path id="Caminho_26" data-name="Caminho 26" d="M316.334,37.769c-1.7,0-3.4-.154-4.944,0-.927,0-1.39-.154-1.39-1.081V28.036c0-.927.309-1.236,1.236-1.236h10.351c.772,0,1.236.154,1.236,1.081v8.342c0,.927-.309,1.081-1.236,1.236-1.854,0-3.553.154-5.407.309C316.334,37.614,316.334,37.769,316.334,37.769Z" transform="translate(154.586 7.846)" fill="#fff"/>
  </g>
</svg>
